<svg id="Layer_1" data-name="Layer 1" xmlns="http://www.w3.org/2000/svg" viewBox="0 0 181.9 216"><defs><style>.cls-1{fill:#204986;}.cls-2{fill:#d3b776;}</style></defs><title>NCSES_Primary Logo_RGB_Full Color</title><circle class="cls-1" cx="8.71" cy="8.71" r="5.14"/><circle class="cls-1" cx="49.83" cy="8.71" r="5.14" transform="translate(-0.69 6.15) rotate(-7.02)"/><circle class="cls-1" cx="90.95" cy="8.71" r="5.14"/><circle class="cls-1" cx="132.07" cy="8.71" r="5.14" transform="translate(-0.07 16.2) rotate(-7.02)"/><path class="cls-2" d="M173.19,0a8.71,8.71,0,0,0-7.55,13L150.2,28.47a29,29,0,0,1,3.23,3.23l15.44-15.44A8.71,8.71,0,1,0,173.19,0Z"/><circle class="cls-1" cx="8.71" cy="49.83" r="5.14"/><circle class="cls-1" cx="90.95" cy="49.83" r="5.14"/><circle class="cls-1" cx="173.19" cy="49.83" r="5.14" transform="translate(-4.79 21.53) rotate(-7.02)"/><circle class="cls-1" cx="49.83" cy="90.95" r="5.14" transform="matrix(1, -0.08, 0.08, 1, -7.33, 4.42)"/><circle class="cls-1" cx="132.07" cy="90.95" r="5.14" transform="translate(-7.05 11.2) rotate(-4.73)"/><circle class="cls-1" cx="173.19" cy="90.95" r="5.14" transform="translate(-9.81 21.84) rotate(-7.02)"/><circle class="cls-1" cx="8.71" cy="132.07" r="5.14" transform="translate(-123.58 127.72) rotate(-84.35)"/><circle class="cls-1" cx="49.83" cy="132.07" r="5.14" transform="translate(-15.76 7.08) rotate(-7.02)"/><circle class="cls-1" cx="90.95" cy="132.07" r="5.14" transform="translate(-49.44 209.57) rotate(-84.35)"/><circle class="cls-1" cx="132.07" cy="132.07" r="5.14" transform="translate(-15.15 17.13) rotate(-7.02)"/><circle class="cls-1" cx="173.19" cy="132.07" r="5.14" transform="translate(-10.3 14.74) rotate(-4.73)"/><path class="cls-2" d="M110.71,68,95.27,83.4a8.62,8.62,0,0,0-8.64,0L57.38,54.15a8.71,8.71,0,1,0-15.1,0L13,83.4a8.74,8.74,0,1,0,3.23,3.23L45.51,57.38a8.62,8.62,0,0,0,8.64,0L83.4,86.63a8.71,8.71,0,1,0,15.1,0l15.44-15.44A29,29,0,0,1,110.71,68Z"/><path class="cls-2" d="M152.76,49.83a20.72,20.72,0,1,0-8.43,16.65L149.2,72l5.68,6.43a4.11,4.11,0,1,0,5.79-5.8L154.24,67l-5.51-4.87A20.59,20.59,0,0,0,152.76,49.83Zm-36,0a15.35,15.35,0,1,1,15.35,15.35A15.37,15.37,0,0,1,116.72,49.83Z"/><polygon class="cls-1" points="25.84 191.86 12.48 158.08 3.57 158.08 3.57 215.19 13.04 215.19 13.04 181.9 26.49 215.19 35.4 215.19 35.4 158.16 25.84 158.16 25.84 191.86"/><path class="cls-1" d="M57.69,166.5c3.4,0,6.4,1.54,6.4,6.73h9.48c0-9.72-6.57-15.88-15.88-15.88s-15.8,6.81-15.8,16.53v25.59c0,9.64,6.48,16.45,15.8,16.45s15.88-6.48,15.88-16.12H64.09c0,5.26-3.24,7-6.4,7-3.32,0-6.32-1.79-6.32-7V173.47C51.37,168.21,54.45,166.5,57.69,166.5Z"/><path class="cls-1" d="M88.25,171.53c0-3.4,2.35-5.43,5.84-5.43s6.15,2.11,6.15,7.13h9.32c0-9.8-6.4-16-15.39-16-9.32,0-15.39,5.83-15.39,14.74,0,14.26,22,19.12,22,29,0,3.81-2.67,6-6.32,6s-6.88-1.78-6.88-7.21h-9.4c0,10.21,6.8,16.2,16.28,16.2,10,0,15.63-6.24,15.63-15.63C110,185.22,88.25,181.65,88.25,171.53Z"/><polygon class="cls-1" points="115.5 215.19 142.08 215.19 142.08 206.04 124.98 206.04 124.98 190.56 139.05 190.56 139.05 182.22 124.98 182.22 124.98 167.31 142.08 167.31 142.08 158.08 115.5 158.08 115.5 215.19"/><path class="cls-1" d="M156.54,171.53c0-3.4,2.35-5.43,5.84-5.43s6.15,2.11,6.15,7.13h9.32c0-9.8-6.4-16-15.39-16-9.32,0-15.39,5.83-15.39,14.74,0,14.26,22,19.12,22,29,0,3.81-2.67,6-6.32,6s-6.88-1.78-6.88-7.21h-9.4c0,10.21,6.8,16.2,16.28,16.2,10,0,15.64-6.24,15.64-15.63C178.34,185.22,156.54,181.65,156.54,171.53Z"/></svg>